<svg xmlns="http://www.w3.org/2000/svg" width="45.929" height="45.929" viewBox="0 0 45.929 45.929">
    <g data-name="Group 20620">
        <g data-name="Group 20619">
            <g data-name="Group 20609">
                <g data-name="Group 387">
                    <ellipse data-name="Ellipse 69" cx="22.964" cy="22.965" rx="22.964" ry="22.965" style="fill:#e9d9f5"/>
                </g>
            </g>
        </g>
        <path data-name="Union 1" d="M21.188 25.35a.343.343 0 0 1-.345-.341v-2.747a.344.344 0 0 0-.346-.341h-1.186c-1.131 0-2.13-2.709-2.185-4.448h-.807a.434.434 0 0 1-.357-.686l1.1-1.52a.332.332 0 0 0 .065-.2v-.886a5.661 5.661 0 0 1 5.607-5.655 5.587 5.587 0 0 1 4.978 8.3c-.577 1.015-1.822 3.426-1.822 4.619a3.721 3.721 0 0 0 .758 2.247l.845 1.113a.341.341 0 0 1-.276.546zm-19.972 0a.341.341 0 0 1-.276-.55l.845-1.113a3.716 3.716 0 0 0 .759-2.247c0-1.193-1.247-3.6-1.823-4.619A5.587 5.587 0 0 1 5.7 8.528a5.662 5.662 0 0 1 5.608 5.655v.886a.337.337 0 0 0 .064.2l1.1 1.52a.434.434 0 0 1-.356.686h-.808c-.055 1.739-1.055 4.448-2.185 4.448H7.934a.343.343 0 0 0-.345.341v2.747a.344.344 0 0 1-.346.341zm12.533-13.4a1.113 1.113 0 0 1-1.062-1.041 4.372 4.372 0 0 1 0-.461h3.053a1.3 1.3 0 0 1-.457 1.283 1.048 1.048 0 0 1-.6.22 8.07 8.07 0 0 1-.935-.003zm.466-2.268h-1.472a.389.389 0 0 1-.447-.441 1.966 1.966 0 0 0-.582-1.412 3.388 3.388 0 0 1 1.427-5.6 3.459 3.459 0 0 1 4.187 1.759 3.375 3.375 0 0 1-.554 3.782 2.069 2.069 0 0 0-.594 1.054 4 4 0 0 0-.042.452.382.382 0 0 1-.411.4zm6.041-3.818a28.041 28.041 0 0 0-.82-.005h-.6a.375.375 0 0 1-.368-.513.354.354 0 0 1 .343-.242h1.586a.422.422 0 0 1 .374.276v.2a.478.478 0 0 1-.487.282zm-12.172 0a.381.381 0 1 1 0-.758h1.484a.381.381 0 1 1 0 .758zM17.2 2.525a.37.37 0 0 1-.113-.268.366.366 0 0 1 .118-.265q.537-.54 1.085-1.074a.364.364 0 0 1 .426-.075.4.4 0 0 1 .231.388.938.938 0 0 1-.131.232c-.349.357-.706.708-1.066 1.057a.4.4 0 0 1-.281.121.382.382 0 0 1-.269-.116zm-6.5.01c-.152-.141-.3-.291-.446-.437-.214-.211-.429-.422-.642-.635a.365.365 0 0 1-.1-.407.328.328 0 0 1 .312-.241.506.506 0 0 1 .312.1c.374.351.737.715 1.1 1.082a.7.7 0 0 1 .113.213.4.4 0 0 1-.232.388.365.365 0 0 1-.161.038.358.358 0 0 1-.256-.101zm3.381-1.26a.352.352 0 0 1-.245-.338V-.629A.42.42 0 0 1 14.114-1h.2a.48.48 0 0 1 .285.509c-.012.467 0 .935-.005 1.4a.381.381 0 0 1-.378.391.4.4 0 0 1-.137-.025z" transform="translate(8.749 8)" style="fill:#9243ce"/>
    </g>
</svg>
